<?xml version="1.0" encoding="UTF-8"?>
<svg width="120" height="40" viewBox="0 0 120 40" xmlns="http://www.w3.org/2000/svg">
  <!-- Main background shape (rounded rectangle) -->
  <rect x="10" y="10" width="100" height="30" rx="8" fill="#14532D" />
  
  <!-- Letter N -->
  <path d="M25 15 L25 35 L30 35 L30 20 L40 35 L45 35 L45 15 L40 15 L40 30 L30 15 Z" fill="#FFFFFF" />
  
  <!-- Letter O -->
  <circle cx="55" cy="25" r="10" fill="#14532D" stroke="#FFFFFF" stroke-width="2.5" />
  
  <!-- Letter R -->
  <path d="M75 15 L75 35 L80 35 L80 27 L85 27 C87 27 89 26 90 24 C91 22 91 20 90 18 C89 16 87 15 85 15 Z" fill="#FFFFFF" />
  <path d="M80 20 L85 20 C86 20 87 21 87 22.5 C87 24 86 25 85 25 L80 25 Z" fill="#14532D" />
  <path d="M85 27 L95 35 L88 35 L80 27 Z" fill="#FFFFFF" />
  
  <!-- Letter I -->
  <path d="M100 15 L100 35 L105 35 L105 15 Z" fill="#FFFFFF" />
</svg>